pedal_clip_forces.mot
version=1
nRows=144
nColumns=4
inDegrees=yes
endheader
time	PedalClip_calcn_r_Fx	PedalClip_calcn_r_Fy	PedalClip_calcn_r_Fz
0	-3.92748187934847	20.5841507982216	0
0.001	-4.49969056543605	20.9713316179202	0
0.0015	-5.06900748437663	21.3594419696161	0
0.00358966	-5.6354334759696	21.7484785720446	0
0.00517917	-6.19896956543651	22.138437358478	0
0.00676868	-6.75961687199479	22.5293135529697	0
0.00822054	-7.31737661170511	22.9211019598734	0
0.01015968	-7.87225010037455	23.3137972393919	0
0.01209882	-8.42423875651961	23.7073940839945	0
0.01369987	-8.97334417330331	24.1018870910312	0
0.01530091	-9.5195683769217	24.4972705702843	0
0.01657431	-10.0629137392259	24.893538474499	0
0.01769971	-10.6033825693626	25.2906843660931	0
0.01880841	-11.1409770837482	25.6887014992931	0
0.01991712	-11.6756996069273	26.0875829606433	0
0.02216201	-12.2075527332651	26.4873217873779	0
0.023096	-12.7365393380034	26.8879109362678	0
0.02402998	-13.2626623737127	27.2893429174754	0
0.024723	-13.7859248118656	27.6916097554059	0
0.02538678	-14.3063295915551	28.0947031118186	0
0.02685525	-14.8238795210615	28.4986145290094	0
0.02832372	-15.3385774913051	28.903335589589	0
0.0289342	-15.8504262470276	29.3088577730783	0
0.02968445	-16.3594284279923	29.7151722204268	0
0.03058651	-16.8655865009492	30.1222698949682	0
0.03148857	-17.3689025550644	30.5301417987219	0
0.03211319	-17.8693781854771	30.938779098079	0
0.03306612	-18.367014483209	31.3481732602023	0
0.03401905	-18.8618122754977	31.7583163210683	0
0.03437244	-19.3537719726899	32.1692010585977	0
0.03571332	-19.842893343446	32.5808211409367	0
0.03647459	-20.3291755915554	32.9931714129816	0
0.03723586	-20.8126169337018	33.4062480263111	0
0.03757411	-21.2932143271628	33.8200487423291	0
0.03878995	-21.7709633783642	34.2345734165714	0
0.03943558	-22.2458584625269	34.6498247119646	0
0.04008121	-22.7178921142749	35.0658084718326	0
0.04038254	-23.1870548233725	35.4825345958796	0
0.04086283	-23.65333501876	35.9000182903609	0
0.04200501	-24.1167186619005	36.318281616265	0
0.04262604	-24.5771889478836	36.7373550357045	0
0.04324708	-25.0347264794841	37.1572799657558	0
0.04363267	-25.4893090687708	37.5781117850741	0
0.04406775	-25.9409115042072	37.9999230829409	0
0.04494197	-26.3895057694354	38.4228063398951	0
0.04581619	-26.835062609634	38.8468745310227	0
0.04623841	-27.2775553378996	39.2722567634737	0
0.04725096	-27.7169669128285	39.699079189924	0
0.04764968	-28.1532986134394	40.1274160537077	0
0.0483018	-28.5865736738745	40.5571985109601	0
0.0488399	-29.0171846585372	40.9868615924862	0
0.04952692	-29.4448575836607	41.4162080559284	0
0.05021393	-29.8696024518295	41.8451064999564	0
0.05060592	-30.291374563166	42.2734360766178	0
0.05133859	-30.7101281539782	42.7010711751667	0
0.05193058	-31.1258471080952	43.1278930856668	0
0.05252258	-31.5383955421184	43.5537606073187	0
0.05287652	-31.9475380614303	43.9784997861729	0
0.05346879	-32.3531894729209	44.4019438163732	0
0.05399633	-32.7555917530307	44.8239837443687	0
0.05452386	-33.1552294685839	45.244590546084	0
0.05486167	-33.5526545621926	45.663759792339	0
0.05526132	-33.948318223025	46.081492626553	0
0.05581106	-34.3424927612091	46.4978233503051	0
0.0563608	-34.7351840337559	46.9127823917434	0
0.05669151	-35.1263873344807	47.3264562388585	0
0.05708181	-35.5161790635355	47.7390091453269	0
0.05760699	-35.9046744610669	48.1506694409222	0
0.05813216	-36.29194220738	48.5616738932867	0
0.05838145	-36.6779570303813	48.9722283353845	0
0.05874458	-37.0626162801139	49.3824924541659	0
0.05926478	-37.4457921479214	49.792564155347	0
0.05978498	-37.8274329407357	50.2024808160192	0
0.05993251	-38.2074978402865	50.6121884894436	0
0.0603132	-38.5859127390362	51.02162326251	0
0.06080267	-38.9626878021282	51.4307355238594	0
0.06129214	-39.3378857464427	51.8395377790952	0
0.06144349	-39.7116204162935	52.2481596489276	0
0.06180917	-40.0840798130042	52.6568461745806	0
0.06229804	-40.4555537669716	53.0659470142631	0
0.06278691	-40.8264091353781	53.4758926504996	0
0.0629328	-41.1969305499424	53.8870785744988	0
0.06328941	-41.5673065149722	54.2998526068524	0
0.06375964	-41.9376628009195	54.7145173999783	0
0.06422988	-42.3080755538341	55.1313190389183	0
0.06439011	-42.6784438161997	55.5504104382372	0
0.06472545	-43.0485364330033	55.9718619961699	0
0.06520583	-43.4181470129613	56.3957319211731	0
0.0656862	-43.7871965638137	56.8221261012232	0
0.06582072	-44.1555468808735	57.251173840842	0
0.06617012	-44.5229728776521	57.6829680267061	0
0.06660443	-44.8894205823478	58.1176361769288	0
0.06703874	-45.2551818853308	58.5553853720382	0
0.06737774	-45.6209750809075	58.9965069977359	0
0.06754724	-45.9878264901494	59.4413184014966	0
0.06821564	-46.3568529493929	59.8900781500484	0
0.06834042	-46.7289732764146	60.3429770159182	0
0.06853555	-47.1046905454857	60.8001781527095	0
0.0691799	-47.4839457177837	61.2617688528564	0
0.06949423	-47.8664315096865	61.7277770983592	0
0.06993465	-48.2516551459606	62.1981694916603	0
0.07037507	-48.6390361208369	62.6728388804085	0
0.07070477	-49.0279787096609	63.1515936902413	0
0.07089609	-49.4180204045111	63.6341739636159	0
0.07149929	-49.808913386065	64.1203358495016	0
0.07179658	-50.2005953397274	64.6098691393814	0
0.07225447	-50.5930912557734	65.102563028767	0
0.07271978	-50.9864317872563	65.5981753839267	0
0.07318509	-51.3806371290093	66.0964355729902	0
0.07345786	-51.7757022460015	66.5970162776455	0
0.07376421	-52.1716619942562	67.0996052839586	0
0.07427763	-52.5685766260002	67.6039063817113	0
0.07432947	-52.9665030336304	68.1096331204422	0
0.07452499	-53.3654572147213	68.6165030625857	0
0.07485875	-53.7654145160511	69.1242076457164	0
0.07498149	-54.1663162156664	69.6324149370203	0
0.0752713	-54.5681797901667	70.140877500965	0
0.07564244	-54.9710743944545	70.64941852988	0
0.07601358	-55.3750160847062	71.157873198564	0
0.0766772	-55.7798628440389	71.6660648208454	0
0.07752494	-56.1854125261908	72.1738485226368	0
0.07763169	-56.5914336981832	72.681114754738	0
0.07780227	-56.9975844860895	73.1877465545117	0
0.07835658	-57.4033462683564	73.6936020498897	0
0.07864378	-57.8082261525897	74.1985711879469	0
0.07911238	-58.2118390946116	74.7025837976091	0
0.07943484	-58.6139437711619	75.2055850599151	0
0.07975731	-59.0143704620921	75.7075111763142	0
0.08015834	-59.4129695427168	76.2082841026686	0
0.08033675	-59.8097021705065	76.7078183102352	0
0.08069568	-60.2046688611561	77.2060153408972	0
0.08105529	-60.5979474903548	77.7027629394467	0
0.08133521	-60.9894886075199	78.1979556186724	0
0.08178426	-61.3793066177101	78.6915432414891	0
0.08189205	-61.7675358426152	79.1835658916009	0
0.08220936	-62.1543231615768	79.6740814138354	0
0.08248149	-62.5397075484867	80.163135216119	0
0.08271895	-62.9237362532108	80.6508233486186	0
0.0829564	-63.306492717329	81.1372808842716	0
0.08319386	-63.6880704117205	81.6226357518715	0
0.08354549	-64.0685217112098	82.1069827426472	0
0.08367131	-64.4478839225597	82.59040759459	0
0.08397137	-64.8261881337453	83.0729984206226	0
0.08430386	-65.2034596126104	83.5548345991547	0
